<?xml version="1.0" encoding="utf-8"?>
<!-- Generator: Adobe Illustrator 23.0.1, SVG Export Plug-In . SVG Version: 6.00 Build 0)  -->
<svg version="1.1" id="Layer_1" xmlns="http://www.w3.org/2000/svg" xmlns:xlink="http://www.w3.org/1999/xlink" x="0px" y="0px"
	 viewBox="0 0 117.8 44.2" style="enable-background:new 0 0 117.8 44.2;" xml:space="preserve">
<style type="text/css">
	.st0{fill:#806D60;}
	.st1{fill:#A68E7C;}
</style>
<title>logo_no_fire</title>
<desc>Created with Sketch.</desc>
<g id="Page-1">
	<g id="logo_no_fire">
		<g id="Group" transform="translate(43.000000, 107.000000)">
			<g id="Shape">
				<path class="st0" d="M73.1-73.5c0,5.9-4.8,10.7-10.7,10.7c-5.9,0-10.7-4.8-10.7-10.7c0-5.9,4.8-10.7,10.7-10.7
					C68.3-84.2,73.1-79.4,73.1-73.5z"/>
				<path class="st0" d="M-33.1-83.8L-33.1-83.8c0.1,0,0.2,0,0.3-0.1L-33.1-83.8z"/>
				<path class="st0" d="M73.1-94.9c0-5.9-4.8-10.7-10.7-10.7c-1,0-1.9,0.1-2.8,0.4l0,0L-32.1-84c0.6-0.1,1.3-0.2,2-0.2
					c5.9,0,10.7,4.8,10.7,10.7c0,4.9-3.4,9.1-7.9,10.3l0,0l92.6-21.4l0,0C69.8-85.8,73.1-90,73.1-94.9z"/>
				<path class="st1" d="M-19.4-73.5c0,5.9-4.8,10.7-10.7,10.7c-5.9,0-10.7-4.8-10.7-10.7c0-5.9,4.8-10.7,10.7-10.7
					C-24.2-84.2-19.4-79.4-19.4-73.5z"/>
				<path class="st1" d="M51.7-73.5c0-5.9,4.8-10.7,10.7-10.7c0.7,0,1.3,0.1,2,0.2l-91.7-21.2l0,0c-0.9-0.2-1.8-0.4-2.8-0.4
					c-5.9,0-10.4,4.8-10.4,10.7c0,4.9,3.7,9,7.9,10.3l0,0c0.3,0.1,0.4,0.2,0.7,0.2l91.6,21.2l0,0C55.1-64.4,51.7-68.6,51.7-73.5z"/>
				<path class="st1" d="M65.4-83.8L65.4-83.8l-0.3-0.1C65.2-83.8,65.3-83.8,65.4-83.8z"/>
			</g>
		</g>
	</g>
</g>
</svg>
